<svg xmlns="http://www.w3.org/2000/svg" width="236" height="72.851" viewBox="0 0 236 72.851">
  <g id="グループ_1453" data-name="グループ 1453" transform="translate(-189.983 -130.192)">
    <path id="パス_687" data-name="パス 687" d="M216.513,187.507a15.942,15.942,0,0,1-6.43.994c-4.837,0-9.457-3.127-9.457-11.223,0-10.428,7.793-22.587,13.529-28.73-4.431,2.846-24.172,20.707-24.172,37.3,0,8.455,5.558,13.029,15.024,13.029,7.919,0,16.739-4.07,18.811-5.445V130.192l-7.305,6.15Z" transform="translate(0 0)" fill="#fff"/>
    <path id="パス_688" data-name="パス 688" d="M307.617,141.12c-7.919,0-16.739,4.07-18.811,5.444v63.243l7.306-6.151V152.492a15.939,15.939,0,0,1,6.43-.995c4.837,0,9.457,3.127,9.457,11.223,0,10.428-7.793,22.587-13.529,28.73,4.431-2.846,24.173-20.707,24.173-37.3C322.641,145.693,317.083,141.12,307.617,141.12Z" transform="translate(-61.166 -6.764)" fill="#fff"/>
    <path id="パス_689" data-name="パス 689" d="M419.66,163.152c-3.9-.163-12.839-.018-12.839-.018V205.26h5.943V169.138s4.192.016,6.08.016a9.493,9.493,0,0,1,3.591.5,14.961,14.961,0,0,1,11.4,14.617c0,6.742-5.4,15.059-14.644,15.059l-3.4.007v5.924l3.7-.018c11.483,0,20.41-10.332,20.41-20.972C439.906,172.324,429.687,163.152,419.66,163.152Z" transform="translate(-134.211 -20.353)" fill="#fff"/>
    <path id="パス_690" data-name="パス 690" d="M659.524,216.877V197.749h-5.44v18.879c0,2.4-1.895,5.279-4.987,5.279a4.924,4.924,0,0,1-5.018-5.03V197.739H638.4v19.138a4.938,4.938,0,0,1-4.834,5.044,5.025,5.025,0,0,1-5.157-5.044v-19.1h-5.517v19.1a10.6,10.6,0,0,0,10.674,10.607c3.064,0,5.5-1.546,7.686-3.346a10.611,10.611,0,0,0,18.272-7.261Z" transform="translate(-267.947 -41.808)" fill="#fff"/>
    <rect id="長方形_1236" data-name="長方形 1236" width="5.367" height="28.159" transform="translate(343.9 155.971)" fill="#fff"/>
    <path id="パス_691" data-name="パス 691" d="M594.363,176.842a4.152,4.152,0,0,0,4.152-4.2,4.223,4.223,0,0,0-4.228-4.149,4.111,4.111,0,0,0-4.02,4.158A4.035,4.035,0,0,0,594.363,176.842Z" transform="translate(-247.754 -23.705)" fill="#fff"/>
    <path id="パス_692" data-name="パス 692" d="M495.351,296.064c-1.7-1.557-4.944-.978-4.944,1.725v5.629h1.427l0-5.209a1.314,1.314,0,0,1,1.373-1.4c.665,0,1.26.358,1.28,1.538.029,1.651,0,5.073,0,5.073h1.632s.006-3.591,0-5.2a1.5,1.5,0,0,1,1.469-1.441c.733,0,1.219.494,1.219,1.523,0,1.858.01,5.121.01,5.121h1.525s.012-4.187,0-5.51C500.343,296.351,498.462,293.98,495.351,296.064Z" transform="translate(-185.946 -102.138)" fill="#fff"/>
    <path id="パス_693" data-name="パス 693" d="M409.607,286.006h-3.074v11.686h1.678v-9.978l1.462.005c2.013,0,3.19.9,3.19,2.783a2.754,2.754,0,0,1-2.927,2.758h-1.007v1.557s.948,0,1.181,0a4.23,4.23,0,0,0,4.4-4.315C414.509,288.413,413.175,286.006,409.607,286.006Z" transform="translate(-134.032 -96.44)" fill="#fff"/>
    <path id="パス_694" data-name="パス 694" d="M789.046,293.6a2.681,2.681,0,1,1-5.353.2,2.676,2.676,0,0,1,2.585-2.529h1.964v-1.477H786.3a4.091,4.091,0,0,0-.146,8.177,4.211,4.211,0,0,0,4.333-4.317V286.3h-1.445Z" transform="translate(-366.588 -96.622)" fill="#fff"/>
    <path id="パス_695" data-name="パス 695" d="M566.142,301.942a2.623,2.623,0,0,1-2.6-2.578,2.687,2.687,0,0,1,1.28-2.283,2.608,2.608,0,0,1,3.165.333l-3.838,2.323.748,1.091,5.047-2.916a4.117,4.117,0,0,0-3.673-2.808A4.2,4.2,0,0,0,562,299.4a4.056,4.056,0,0,0,4.068,4,4.186,4.186,0,0,0,4.234-3.99h-1.342A2.921,2.921,0,0,1,566.142,301.942Z" transform="translate(-230.254 -102.071)" fill="#fff"/>
    <path id="パス_696" data-name="パス 696" d="M652.233,294.881a4.169,4.169,0,0,0-4.115,4.131,4.322,4.322,0,0,0,3.8,4.2h2.164v-1.662H651.8a2.272,2.272,0,0,1-2.116-2.539,2.525,2.525,0,0,1,2.659-2.627,2.761,2.761,0,0,1,2.593,2.988v3.839h1.41v-4.206A3.97,3.97,0,0,0,652.233,294.881Z" transform="translate(-283.56 -101.933)" fill="#fff"/>
    <path id="パス_697" data-name="パス 697" d="M454.963,294.881a4.169,4.169,0,0,0-4.115,4.131,4.322,4.322,0,0,0,3.8,4.2h2.164v-1.662h-2.28a2.272,2.272,0,0,1-2.116-2.539,2.526,2.526,0,0,1,2.659-2.627,2.761,2.761,0,0,1,2.593,2.988v3.839h1.41v-4.206A3.971,3.971,0,0,0,454.963,294.881Z" transform="translate(-161.461 -101.933)" fill="#fff"/>
    <path id="パス_698" data-name="パス 698" d="M523.651,294.881a4.169,4.169,0,0,0-4.115,4.131,4.322,4.322,0,0,0,3.8,4.2h2.241v-1.662h-2.357a2.272,2.272,0,0,1-2.116-2.539,2.525,2.525,0,0,1,2.659-2.627,2.761,2.761,0,0,1,2.593,2.988v3.839h1.41v-4.206A3.971,3.971,0,0,0,523.651,294.881Z" transform="translate(-203.975 -101.933)" fill="#fff"/>
    <path id="パス_699" data-name="パス 699" d="M693.086,288.9a5.455,5.455,0,0,0,.109,6.079c1.6,2.458,4.109,2.933,6.891,2.589V296c-.73,0-1.432.03-2.046-.006a4.15,4.15,0,1,1,.117-8.3c.6-.019,1.242,0,1.929,0v-1.727C696.644,285.966,694.619,286.339,693.086,288.9Z" transform="translate(-310.853 -96.416)" fill="#fff"/>
    <path id="パス_700" data-name="パス 700" d="M434.008,289.728a2.909,2.909,0,0,0-1.859.62v-4.04h-1.388v11.571h1.388v-4.733a1.721,1.721,0,0,1,2.166-1.841c.9.124,1.429.785,1.466,1.945v4.629h1.46s.036-3.385-.008-4.949A3.131,3.131,0,0,0,434.008,289.728Z" transform="translate(-149.028 -96.627)" fill="#fff"/>
    <path id="パス_701" data-name="パス 701" d="M719.388,295.313a4.125,4.125,0,1,0,4.092,4.2A4.029,4.029,0,0,0,719.388,295.313Zm.037,6.764a2.632,2.632,0,0,1-2.634-2.622,2.6,2.6,0,1,1,5.192.067A2.628,2.628,0,0,1,719.425,302.077Z" transform="translate(-325.155 -102.2)" fill="#fff"/>
    <path id="パス_702" data-name="パス 702" d="M592.177,300.6a1.8,1.8,0,0,1-1.861,1.784,1.7,1.7,0,0,1-1.8-1.8v-4.751h-1.505s-.006,3.206,0,4.534c0,2.4,1.317,3.507,3.3,3.507a3.52,3.52,0,0,0,3.312-3.036v-5h-1.451Z" transform="translate(-245.738 -102.517)" fill="#fff"/>
    <path id="パス_703" data-name="パス 703" d="M752.635,293.372v-7.155H751.03v7.113a4.148,4.148,0,0,0,4.347,4.5h1.528v-1.661h-1.583A2.527,2.527,0,0,1,752.635,293.372Z" transform="translate(-347.257 -96.57)" fill="#fff"/>
    <path id="パス_704" data-name="パス 704" d="M609.921,292.07h-1.583s-.008,4.213,0,6.069c0,1.41.947,3.312,2.821,3.312H612.6v-1.6h-1.586a.989.989,0,0,1-1.028-1.024c-.029-1.265-.009-3.936-.009-3.936h2.715v-1.475h-2.768Z" transform="translate(-258.937 -100.194)" fill="#fff"/>
    <path id="パス_705" data-name="パス 705" d="M547.991,302.043a2.626,2.626,0,0,1-2.412-2.684,2.471,2.471,0,0,1,2.391-2.513c.649-.051,1.306-.009,2.013-.009v-1.569h-1.8a4.163,4.163,0,0,0-3.6,2.109,3.892,3.892,0,0,0,.226,4.439,4.154,4.154,0,0,0,3.6,1.579l1.584-.007v-1.337S548.6,302.1,547.991,302.043Z" transform="translate(-219.111 -102.174)" fill="#fff"/>
    <path id="パス_706" data-name="パス 706" d="M631.458,297.149a3.906,3.906,0,0,0-.106,4.182c1.163,2.075,2.9,2.014,5.443,2.014v-1.4c-.651,0-1.378.038-1.982-.008a2.652,2.652,0,0,1-2.486-2.627,2.586,2.586,0,0,1,2.508-2.579c.605-.049,1.959.01,1.959.01V295.1l-1,0C634.044,295.1,632.579,295.354,631.458,297.149Z" transform="translate(-272.84 -102.068)" fill="#fff"/>
    <path id="パス_707" data-name="パス 707" d="M770.172,298.447V294.7h2.787v-1.361h-2.787v-1.495h-1.414v6.728a2.884,2.884,0,0,0,2.774,2.759h1.5v-1.653h-1.588A1.164,1.164,0,0,1,770.172,298.447Z" transform="translate(-358.23 -100.052)" fill="#fff"/>
    <rect id="長方形_1237" data-name="長方形 1237" width="1.685" height="11.708" transform="translate(374.247 189.573)" fill="#fff"/>
    <path id="パス_708" data-name="パス 708" d="M478.044,295.978l.012-.418h-1.578v8.026h1.566v-5.112c0-.982.758-1.524,1.826-1.524h.881v-1.466s-.446.008-1.092.008A3,3,0,0,0,478.044,295.978Z" transform="translate(-177.325 -102.307)" fill="#fff"/>
    <rect id="長方形_1238" data-name="長方形 1238" width="1.265" height="7.9" transform="translate(355.475 193.3)" fill="#fff"/>
    <path id="パス_709" data-name="パス 709" d="M741.784,315.409h1.066l1-3.109h-1.506Z" transform="translate(-341.534 -112.715)" fill="#fff"/>
    <path id="パス_710" data-name="パス 710" d="M805.705,312.224a.85.85,0,1,0,.85.85A.85.85,0,0,0,805.705,312.224Z" transform="translate(-380.572 -112.668)" fill="#fff"/>
    <path id="パス_711" data-name="パス 711" d="M737.152,312.217a.85.85,0,1,0,.85.85A.85.85,0,0,0,737.152,312.217Z" transform="translate(-338.141 -112.663)" fill="#fff"/>
    <path id="パス_712" data-name="パス 712" d="M624.108,287.612a1.122,1.122,0,1,0,1.122,1.122A1.122,1.122,0,0,0,624.108,287.612Z" transform="translate(-268.005 -97.434)" fill="#fff"/>
    <path id="パス_713" data-name="パス 713" d="M751.652,219.729h-6.721c-5.762,0-9.573-4.944-9.573-9.955,0-6.13,5.452-9.24,9.578-9.24a9.507,9.507,0,0,1,9.568,9.753c0,4.429,0,14.793,0,14.793h5.425V209.6a15.044,15.044,0,0,0-30.078.118c0,8.193,6.279,15.389,14.066,15.389h7.735Z" transform="translate(-334.149 -40.126)" fill="#fff"/>
    <path id="パス_714" data-name="パス 714" d="M514.074,225.089l7.735-.025v-5.335h-6.722c-5.762,0-9.573-4.944-9.573-9.955,0-6.13,5.452-9.24,9.578-9.24a9.507,9.507,0,0,1,9.568,9.753c0,4.429,0,14.793,0,14.793h5.425V209.6a15.1,15.1,0,0,0-15.074-14.576,14.951,14.951,0,0,0-15,14.695C500.008,217.909,506.287,225.089,514.074,225.089Z" transform="translate(-191.888 -40.126)" fill="#fff"/>
  </g>
</svg>
