<svg xmlns="http://www.w3.org/2000/svg" width="200" height="61.738" viewBox="0 0 200 61.738">
  <g id="グループ_1446" data-name="グループ 1446" transform="translate(-189.983 -130.192)">
    <path id="パス_687" data-name="パス 687" d="M212.466,178.764a13.51,13.51,0,0,1-5.449.843c-4.1,0-8.014-2.65-8.014-9.511,0-8.837,6.6-19.142,11.465-24.348-3.755,2.412-20.485,17.548-20.485,31.612,0,7.165,4.71,11.042,12.732,11.042,6.711,0,14.185-3.449,15.941-4.614v-53.6l-6.191,5.212Z" transform="translate(0 0)" fill="#194375"/>
    <path id="パス_688" data-name="パス 688" d="M304.747,141.12c-6.711,0-14.185,3.449-15.941,4.614v53.6L295,194.117V150.757a13.508,13.508,0,0,1,5.449-.843c4.1,0,8.014,2.65,8.014,9.511,0,8.838-6.6,19.142-11.465,24.348,3.755-2.412,20.485-17.548,20.485-31.612C317.48,145,312.77,141.12,304.747,141.12Z" transform="translate(-66.91 -7.399)" fill="#194375"/>
    <path id="パス_689" data-name="パス 689" d="M417.7,163.141c-3.3-.138-10.88-.015-10.88-.015v35.7h5.036V168.213s3.553.013,5.153.013a8.044,8.044,0,0,1,3.044.424,12.679,12.679,0,0,1,9.665,12.388c0,5.714-4.574,12.761-12.41,12.761l-2.881.006v5.021l3.134-.015c9.732,0,17.3-8.756,17.3-17.773C434.859,170.913,426.2,163.141,417.7,163.141Z" transform="translate(-146.816 -22.264)" fill="#194375"/>
    <path id="パス_690" data-name="パス 690" d="M653.936,213.957v-16.21h-4.61v16a4.436,4.436,0,0,1-4.226,4.474,4.173,4.173,0,0,1-4.253-4.263V197.739h-4.813v16.218a4.185,4.185,0,0,1-4.1,4.274,4.258,4.258,0,0,1-4.37-4.274V197.77h-4.675v16.187a8.979,8.979,0,0,0,9.046,8.989c2.6,0,4.665-1.31,6.514-2.836a8.992,8.992,0,0,0,15.485-6.153Z" transform="translate(-293.111 -45.734)" fill="#194375"/>
    <rect id="長方形_1236" data-name="長方形 1236" width="4.548" height="23.864" transform="translate(320.421 152.039)" fill="#194375"/>
    <path id="パス_691" data-name="パス 691" d="M593.738,175.568a3.519,3.519,0,0,0,3.519-3.56,3.578,3.578,0,0,0-3.583-3.516,3.484,3.484,0,0,0-3.406,3.523A3.42,3.42,0,0,0,593.738,175.568Z" transform="translate(-271.022 -25.931)" fill="#194375"/>
    <path id="パス_692" data-name="パス 692" d="M494.6,295.934c-1.444-1.319-4.19-.829-4.19,1.462v4.771h1.209l0-4.414a1.114,1.114,0,0,1,1.163-1.188c.564,0,1.068.3,1.085,1.3.025,1.4,0,4.3,0,4.3h1.383s0-3.043,0-4.408a1.275,1.275,0,0,1,1.245-1.222c.621,0,1.033.418,1.033,1.29,0,1.574.009,4.34.009,4.34h1.293s.01-3.549,0-4.669C498.827,296.177,497.233,294.168,494.6,295.934Z" transform="translate(-203.409 -111.73)" fill="#194375"/>
    <path id="パス_693" data-name="パス 693" d="M409.138,286.006h-2.605v9.9h1.422v-8.456l1.239,0c1.706,0,2.7.765,2.7,2.359a2.334,2.334,0,0,1-2.481,2.337h-.853v1.319s.8,0,1,0a3.585,3.585,0,0,0,3.728-3.657C413.292,288.046,412.162,286.006,409.138,286.006Z" transform="translate(-146.62 -105.497)" fill="#194375"/>
    <path id="パス_694" data-name="パス 694" d="M788.011,292.49a2.272,2.272,0,1,1-4.536.166,2.268,2.268,0,0,1,2.191-2.143h1.664v-1.251h-1.641a3.467,3.467,0,0,0-.124,6.929,3.569,3.569,0,0,0,3.672-3.658V286.3h-1.225Z" transform="translate(-401.016 -105.696)" fill="#194375"/>
    <path id="パス_695" data-name="パス 695" d="M565.509,300.9a2.223,2.223,0,0,1-2.205-2.185,2.277,2.277,0,0,1,1.085-1.935,2.21,2.21,0,0,1,2.682.282l-3.252,1.969.634.925,4.277-2.471a3.489,3.489,0,0,0-3.113-2.38A3.556,3.556,0,0,0,562,298.749a3.438,3.438,0,0,0,3.447,3.39,3.548,3.548,0,0,0,3.589-3.381h-1.137A2.476,2.476,0,0,1,565.509,300.9Z" transform="translate(-251.878 -111.657)" fill="#194375"/>
    <path id="パス_696" data-name="パス 696" d="M651.605,294.881a3.533,3.533,0,0,0-3.487,3.5,3.662,3.662,0,0,0,3.223,3.56h1.834v-1.408h-1.932a1.925,1.925,0,0,1-1.793-2.151,2.14,2.14,0,0,1,2.253-2.226,2.339,2.339,0,0,1,2.2,2.532v3.254h1.2v-3.564A3.365,3.365,0,0,0,651.605,294.881Z" transform="translate(-310.19 -111.506)" fill="#194375"/>
    <path id="パス_697" data-name="パス 697" d="M454.335,294.881a3.533,3.533,0,0,0-3.487,3.5,3.662,3.662,0,0,0,3.222,3.56H455.9v-1.408h-1.932a1.925,1.925,0,0,1-1.794-2.151,2.14,2.14,0,0,1,2.253-2.226,2.34,2.34,0,0,1,2.2,2.532v3.254h1.2v-3.564A3.365,3.365,0,0,0,454.335,294.881Z" transform="translate(-176.624 -111.506)" fill="#194375"/>
    <path id="パス_698" data-name="パス 698" d="M523.024,294.881a3.533,3.533,0,0,0-3.488,3.5,3.663,3.663,0,0,0,3.223,3.56h1.9v-1.408h-2a1.925,1.925,0,0,1-1.794-2.151,2.14,2.14,0,0,1,2.253-2.226,2.34,2.34,0,0,1,2.2,2.532v3.254h1.2v-3.564A3.365,3.365,0,0,0,523.024,294.881Z" transform="translate(-223.131 -111.506)" fill="#194375"/>
    <path id="パス_699" data-name="パス 699" d="M692.953,288.452a4.623,4.623,0,0,0,.092,5.152c1.358,2.083,3.482,2.486,5.84,2.194V294.47c-.619,0-1.213.026-1.734,0a3.517,3.517,0,1,1,.1-7.032c.512-.016,1.053,0,1.635,0v-1.464C695.968,285.966,694.252,286.282,692.953,288.452Z" transform="translate(-340.047 -105.47)" fill="#194375"/>
    <path id="パス_700" data-name="パス 700" d="M433.512,289.206a2.465,2.465,0,0,0-1.575.526v-3.424h-1.176v9.806h1.176V292.1a1.459,1.459,0,0,1,1.835-1.56c.767.1,1.211.665,1.243,1.649v3.923h1.237s.03-2.868-.007-4.194A2.654,2.654,0,0,0,433.512,289.206Z" transform="translate(-163.024 -105.702)" fill="#194375"/>
    <path id="パス_701" data-name="パス 701" d="M718.768,295.313a3.5,3.5,0,1,0,3.468,3.563A3.415,3.415,0,0,0,718.768,295.313Zm.031,5.732a2.231,2.231,0,0,1-2.232-2.222,2.2,2.2,0,1,1,4.4.057A2.227,2.227,0,0,1,718.8,301.045Z" transform="translate(-355.691 -111.798)" fill="#194375"/>
    <path id="パス_702" data-name="パス 702" d="M591.389,299.867a1.523,1.523,0,0,1-1.577,1.512,1.445,1.445,0,0,1-1.524-1.528v-4.027h-1.276s-.005,2.717,0,3.843c0,2.031,1.116,2.972,2.8,2.972a2.983,2.983,0,0,0,2.807-2.573v-4.241h-1.229Z" transform="translate(-268.816 -112.145)" fill="#194375"/>
    <path id="パス_703" data-name="パス 703" d="M752.39,292.28v-6.064h-1.36v6.028a3.515,3.515,0,0,0,3.684,3.81h1.3v-1.407h-1.341A2.142,2.142,0,0,1,752.39,292.28Z" transform="translate(-379.869 -105.64)" fill="#194375"/>
    <path id="パス_704" data-name="パス 704" d="M609.679,292.07h-1.341s-.006,3.57,0,5.143c0,1.2.8,2.807,2.391,2.807h1.216v-1.353H610.6a.839.839,0,0,1-.872-.868c-.025-1.072-.007-3.335-.007-3.335h2.3v-1.25h-2.346Z" transform="translate(-283.255 -109.603)" fill="#194375"/>
    <path id="パス_705" data-name="パス 705" d="M547.381,301.01a2.226,2.226,0,0,1-2.044-2.274,2.094,2.094,0,0,1,2.027-2.129c.55-.043,1.107-.007,1.706-.007v-1.329h-1.526a3.528,3.528,0,0,0-3.054,1.788,3.3,3.3,0,0,0,.192,3.762,3.521,3.521,0,0,0,3.047,1.338l1.342-.006v-1.133S547.895,301.054,547.381,301.01Z" transform="translate(-239.688 -111.769)" fill="#194375"/>
    <path id="パス_706" data-name="パス 706" d="M631.357,296.836a3.311,3.311,0,0,0-.089,3.544c.986,1.759,2.454,1.707,4.613,1.707V300.9c-.552,0-1.168.033-1.679-.006a2.248,2.248,0,0,1-2.106-2.227,2.191,2.191,0,0,1,2.125-2.186c.513-.041,1.661.008,1.661.008V295.1l-.851,0C633.548,295.1,632.307,295.315,631.357,296.836Z" transform="translate(-298.463 -111.653)" fill="#194375"/>
    <path id="パス_707" data-name="パス 707" d="M769.956,297.439v-3.179h2.362v-1.153h-2.362v-1.267h-1.2v5.7a2.444,2.444,0,0,0,2.351,2.338h1.272v-1.4h-1.345A.987.987,0,0,1,769.956,297.439Z" transform="translate(-391.872 -109.448)" fill="#194375"/>
    <rect id="長方形_1237" data-name="長方形 1237" width="1.428" height="9.922" transform="translate(346.139 180.515)" fill="#194375"/>
    <path id="パス_708" data-name="パス 708" d="M477.8,295.9l.01-.354h-1.337v6.8H477.8v-4.332c0-.832.642-1.291,1.548-1.291h.747v-1.243s-.378.007-.926.007A2.54,2.54,0,0,0,477.8,295.9Z" transform="translate(-193.978 -111.915)" fill="#194375"/>
    <rect id="長方形_1238" data-name="長方形 1238" width="1.072" height="6.695" transform="translate(330.231 183.674)" fill="#194375"/>
    <path id="パス_709" data-name="パス 709" d="M741.784,314.935h.9l.845-2.634h-1.276Z" transform="translate(-373.609 -123.3)" fill="#194375"/>
    <path id="パス_710" data-name="パス 710" d="M805.576,312.224a.72.72,0,1,0,.72.72A.721.721,0,0,0,805.576,312.224Z" transform="translate(-416.313 -123.249)" fill="#194375"/>
    <path id="パス_711" data-name="パス 711" d="M737.022,312.217a.72.72,0,1,0,.72.72A.72.72,0,0,0,737.022,312.217Z" transform="translate(-369.897 -123.244)" fill="#194375"/>
    <path id="パス_712" data-name="パス 712" d="M623.937,287.612a.951.951,0,1,0,.951.951A.951.951,0,0,0,623.937,287.612Z" transform="translate(-293.174 -106.585)" fill="#194375"/>
    <path id="パス_713" data-name="パス 713" d="M748.327,215.96h-5.7a8.275,8.275,0,0,1-8.113-8.437c0-5.2,4.62-7.831,8.117-7.831a8.057,8.057,0,0,1,8.108,8.266c0,3.753,0,12.536,0,12.536h4.6V207.374a12.75,12.75,0,0,0-25.49.1c0,6.943,5.321,13.041,11.921,13.041h6.555Z" transform="translate(-365.53 -43.894)" fill="#194375"/>
    <path id="パス_714" data-name="パス 714" d="M511.929,220.5l6.555-.021V215.96h-5.7a8.274,8.274,0,0,1-8.113-8.437c0-5.2,4.62-7.831,8.117-7.831a8.057,8.057,0,0,1,8.108,8.266c0,3.753,0,12.536,0,12.536h4.6V207.374a12.8,12.8,0,0,0-12.774-12.353,12.67,12.67,0,0,0-12.715,12.453C500.008,214.417,505.329,220.5,511.929,220.5Z" transform="translate(-209.909 -43.894)" fill="#194375"/>
  </g>
</svg>
